/* XPM */
static char *_3403_b0ac4e5c4a5b33d3248405459a9f53029379a81e058f52eb320cb38bb8ccd355[] = {
/* columns rows colors chars-per-pixel */
"64 64 44 1 ",
"  c #9E8B61",
". c #9F8D62",
"X c #A18F64",
"o c #A39165",
"O c #A49266",
"+ c #A59467",
"@ c #A7966A",
"# c #A9996E",
"$ c #AB9C72",
"% c #AC9D74",
"& c #AE9F76",
"* c #B0A175",
"= c #B3A375",
"- c #B5A575",
"; c #B8A875",
": c #BCAB76",
"> c #BBAB78",
", c #BFAE79",
"< c #BFB07B",
"1 c #C0AF77",
"2 c #C4B378",
"3 c #C6B579",
"4 c #C2B07D",
"5 c #C7B47D",
"6 c #C8B77A",
"7 c #C9B67D",
"8 c #CBB97C",
"9 c #CEBB7E",
"0 c #CBBC7E",
"q c #CFBC7F",
"w c #C7B981",
"e c #CFBA81",
"r c #D0BC80",
"t c #D3BD83",
"y c #D3BE82",
"u c #CFC183",
"i c #CFC287",
"p c #D6C084",
"a c #D7C185",
"s c #D7C387",
"d c #D3C688",
"f c #D7C689",
"g c #D7C88B",
"h c #D7CB8D",
/* pixels */
"aaaa8666yaaaghhhhhhhhhhhhhhhhhhgaaaaghhhhhhhhhhhhhhhhhhgaaae&&&&",
"aaaay6668aaashhhhhhhhhhhhhhhhhhsaaaashhhhhhhhhhhhhhhhhhsaaa,&&&&",
"aaaaa8666raaaghhhhhhhhhhhhhhhhgaaaaaaghhhhhhhhhhhhhhhhfaaae;&&&&",
"aaaaay66668yashhhhhhhhhhhhhhhhsaaaaaashhhhhhhhhhhhhhgsaaaa,;&&&&",
"aaaaaaq666666666>&&=;;168yaaaaaaaaaaaaaaaay88yaaaaaaaaaaa5;;;;;;",
"aaaaaaaq66666666&&&&;;;1668yaaaaaaaaaaaay866668yaaaaaaaat;;;;;;;",
"aaaaaaaay8666666&&&&;;:26666aaaaaaaaaay866666666qaaaaaaaa,;;;;;;",
"aaaaaaaaaay86666>&&=:2666666aaaaaaaay866666666666qaaaaaaae;;;;;;",
"8yaaaaaaaaaay86666686qaa6666662:;;;;;;;;:266666666qaaaaaaa5;&&&&",
"668yaaaaaaaaaay8666yqaaa66662:;;;;;;;;;;;;:26666666qaaaaaaa5&&&&",
"6666qaaaaaaaaaaaq68aaaaq662:;;;;;;;;;;;;;;;;16666666qaaaaaa4&&&&",
"66666qaaaaaaaaaaaqyaaaq62:;;;;;;;;;;;;;;;;;;;16666666qaaaa4&&&&&",
"&&#++++++++++#&&&&&&&#+++X       .++++++X X+++.       X++++o+X  ",
"&&&#++++++++#&&&&&&&%+++O        o++++++   X++o        X+++.X   ",
"&&&&$@++++++&&&&&&&&&@+++.     X.+++++++X   X++.X       ++o     ",
"&&&&&&$@+++#&&&&&&&&&$+++o    X+o++++++++X   X+o+X      X+.     ",
"aafhi<;;;;;;;;<ihhhhhhhhhhhw;;;;whhhhhhhhhfaaaq66666661;;;;;;5aa",
"aaafhhi<;;;;<ihhhhhhhhhhhhhh;;;;hhhhhhhhhhhfaaaq66666661;;;;5aaa",
"aaaasghhe,,ehhhhhhhhhhhhhhhw;;;;whhhhhhhhhhhaaaay86666662:,eaaaa",
"aaaaaasgaaaahhhhhhhhhhhhhhw;;;;;;whhhhhhhhhhaaaaaay86666668yaaaa",
"8yaaaaaaaaaaaay86216666661;;=&&=;;1666668yaaaaaaaaaaaaaaaaaaaay8",
"668yaaaaaaaay8666:;166661;;;&&&&;;;16666668paaaaaaaaaaaaaaaay866",
"66668yaaaaaaq6663;;166661;;=&&&&;;;16666669aaaaaaaaaaaaaaaaq6666",
"6666668yaaaaaq666116666661=&&&&&;;1666668yaaaaaaaaaaaaaaaaq66666",
";;;;:2668yaaaaq6666666666666&&&&;5aaaaaaaaaaaay86666662:;;;;;;;;",
";;;;;;:2668yaaaq666666666666&&&&5aaaaaaaaaaay86666662:;;;;;;;;;;",
";;;;;;;;:266qaaaq66666666666&&&&aaaaaaaaaaaq6666662:;;;;;;;;;;;;",
";;;;;;;;;;:26qaaaq666666666>&&&&4aaaaaaaaaq666662:;;;;;;;;;;;;;;",
"      X+++++++$&$&&&&#+++o            X+++++++++++++;=&&&&$@+X  ",
"       X++++++@&@&&&#++++.             X++++++++++++=&&&$@++X   ",
"        X++++++$+$&&#++Xo              X+++++++++++#&&&&$@++X   ",
"         X+++++@+@&&&#X .             X+++++++++++#&&&&&&&$@+X  ",
"aaaaafhhhhfaaaq6666666666uhhhhhhhhhhhhhhhhhhhhhhhhhhhhfaaaa5;;;;",
"aaaafhhhhhhfaaaq66666666uhhhhhhhhhhhhhhhhhhhhhhhhhhhhhhfaaaa;;;;",
"aaaasghhhhgsaaaay866668yhhhhhhhhhhhhhhhhhhhhhhhhhhhhhhhfaae,;;;;",
"aaaaaasggsaaaaaaaay88yaahhhhhhhhhhhhhhhhhhhhhhhhhhhhhhfae,;;;;;;",
"aaaa86qaaaaaaaaaaaaaaaaaaay861;;;;;;;;16666661166666662:;;;;;;-*",
"aaaay66qaaaaaaaaaaaaaaaay8661;;;;;;;;;;166661;;166662:;;;;;;-*&&",
"aaaaa8668yaaaaaaaaaaaay8662:;;;;;;;;;;:266661;;16661;;;;;;;;-*&&",
"aaaaay66668yaaaaaaaay8662:;;;;;;;;;;:26666666116661;;;;;;;;;;;-*",
"gsaaaaq666666666662:;;;;;;;;;;;;;;:266666666666661;;;;;;5a5;;;;;",
"hhgsaaaq666666662:;;;;;;;;;;;;;;:2666666666666661;;;;;;;aaa5;;;;",
"hhhhfaaq66666661;;;;;;;;;;;;;;;;166666666666662:;;;;;;;;5aaa;;;;",
"hhhhhfq66666661;;;;;;;;;;;;;;;;;;166666666662:;;;;;;;;;;;5a5;;;;",
"         .#&&&&&&&&&&&$@+X        X+++#&&&@+++++++++X           ",
"         o+#&&&&&&&&$@++X          X+++#&&$+++++++++            ",
"        .++#&&&&&&&&#+++X          X++++#&&@+++++++X            ",
"       Xo+#&&&&&&&&&&#+++X        X++++++#&$#+++++X             ",
"hhw;;;;;;;,eafhhhhfaaaaaaa5;;;;;;whhhhhhhhw;;;;;;whhhffhhhhhhhhh",
"hhhw;;;;,eaafhhhhhhfaaaaaaa5;;;;whhhhhhhhhhw;;;;whhhfaafhhhhhhhh",
"hhd0;;:2aaaahhhhhhgsaaaaaaaa;;;;whhhhhhhhhhh2::2hhgsaaaasghhhhhh",
"d066:266aaaahhhhgsaaaaaaaaaa;;;;;whhhhhhhhhh6666gsaaaaaaaasghhhh",
"66666666yaaaaaaaaae,;;1666qa;;;;;;5aaaaaaafh6666hfaaaay866666666",
"666666668aaaaaaae,;;;;;16667;;;;;;;5aaaaaaaf6666faaay86666666666",
"666666666raaaaaa5;;;;;;1662;;;;;;;;5aaaaaaaq666qaaaq666666666666",
"66666666668yaaaaa5;;;;1666:;;;;;;;5aaaaaaaq666qaaaq6666666666666",
"6666662::2668yaaaaq6666661;;;;-*;5aaaaaaaq66662:;;;;;;;;;;;;;;;;",
"66662:;;;;:2668yaaaq66661;;;-*&&5aaaaaaaq6662:;;;;;;;;;;;;;;;;;;",
"6661;;;;;;;;1666qaaaq661;;;=&&&&4aaaaaaq662:;;;;;;;;;;;;;;;;;;;;",
"661;;;;;;;;;;1666qaaaq1;;;=&&&&&&4aaaaq62:;;;;;;;;;;;;;;;;;;;;;;",
"     X++++X       X+++++;=&&&&&&&&&&&#+++X   X+++X              ",
"    X++++++X       X++++=&&&&&&&&&&&#+++X   X+++X               ",
"    ++++++++        ++++&&&&&&&&&&&&++++    ++++                ",
"    ++++++++        ++++&&&&&&&&&&&&++++    ++++                "
};
