/* XPM */
static char *_2027_3532d90d5dfd4a35375c35b2d10dd906c8c3e826db8f5eb49892bdf46eb52c43[] = {
/* columns rows colors chars-per-pixel */
"64 64 171 2 ",
"   c #271E11",
".  c #291F11",
"X  c #2C2213",
"o  c #2B2419",
"O  c #322614",
"+  c #362A15",
"@  c #3A2C17",
"#  c #3D2E18",
"$  c #342B19",
"%  c #3E301B",
"&  c #3F3A12",
"*  c #3B3226",
"=  c #2B343D",
"-  c #3F3F3F",
";  c #631D13",
":  c #751912",
">  c #7C1B14",
",  c #7A1712",
"<  c #5A2A0A",
"1  c #4C2D12",
"2  c #492615",
"3  c #5F2A19",
"4  c #5C2416",
"5  c #41311A",
"6  c #483B15",
"7  c #533013",
"8  c #5B3112",
"9  c #632805",
"0  c #6C2C06",
"q  c #692E0B",
"w  c #742E06",
"e  c #7D2909",
"r  c #782A09",
"t  c #67300C",
"y  c #68300C",
"u  c #773007",
"i  c #733008",
"p  c #632316",
"a  c #692115",
"s  c #433B34",
"d  c #47382D",
"f  c #195037",
"g  c #344D33",
"h  c #2D5B3F",
"j  c #2A4C33",
"k  c #4F580D",
"l  c #515D0A",
"z  c #4C4F11",
"x  c #464313",
"c  c #4F5611",
"v  c #505512",
"b  c #525C10",
"n  c #594A13",
"m  c #625314",
"M  c #54640B",
"N  c #556809",
"B  c #5A6D0C",
"V  c #5E720D",
"C  c #566110",
"Z  c #76680E",
"A  c #61760D",
"S  c #63790E",
"D  c #687F0F",
"F  c #687C11",
"G  c #484F2D",
"H  c #4C4C25",
"J  c #5A462A",
"K  c #4E5532",
"L  c #624C2D",
"P  c #634F30",
"I  c #665231",
"U  c #695433",
"Y  c #68502B",
"T  c #7C623E",
"R  c #303943",
"E  c #2A3A4C",
"W  c #1A5D42",
"Q  c #35404C",
"!  c #215C40",
"~  c #3A5F41",
"^  c #394757",
"/  c #0D694E",
"(  c #0F6449",
")  c #116147",
"_  c #126349",
"`  c #0C6B50",
"'  c #0D7356",
"]  c #187857",
"[  c #1A7959",
"{  c #296447",
"}  c #28684B",
"|  c #266749",
" . c #207F5D",
".. c #1B5C65",
"X. c #2D4663",
"o. c #2F4A6C",
"O. c #374F6E",
"+. c #2E4D73",
"@. c #2A4E7A",
"#. c #2B517F",
"$. c #494949",
"%. c #444444",
"&. c gray48",
"*. c #8C140E",
"=. c #841D0C",
"-. c #8A180E",
";. c #821612",
":. c #8C1211",
">. c #8B1B15",
",. c #911111",
"<. c #9C1212",
"1. c #9B1B16",
"2. c #A51313",
"3. c #A41A13",
"4. c #AB1513",
"5. c #B31514",
"6. c #BC1616",
"7. c #84210C",
"8. c #897E08",
"9. c #807409",
"0. c #816336",
"q. c #8B6C40",
"w. c #846A41",
"e. c #8D7345",
"r. c #977747",
"t. c #9B7742",
"y. c #9D7C46",
"u. c #967B49",
"i. c #A17C45",
"p. c #6A810F",
"a. c #728B0F",
"s. c #7A8A0E",
"d. c #7F860C",
"f. c #6E8510",
"g. c #6F8812",
"h. c #758E11",
"j. c #14815F",
"k. c #0F8564",
"l. c #118563",
"z. c #118E6B",
"x. c #128866",
"c. c #908508",
"v. c #9A8D0C",
"b. c #A09309",
"n. c #A89B0A",
"m. c #9F844D",
"M. c #A7814A",
"N. c #AD864D",
"B. c #A9884F",
"V. c #B38C51",
"C. c #B79259",
"Z. c #B9955D",
"A. c #BF995E",
"S. c #898773",
"D. c #BC9862",
"F. c #C49F66",
"G. c #CCA66C",
"H. c #2D5484",
"J. c #2F5789",
"K. c #2D588E",
"L. c #315B8E",
"P. c #305583",
"I. c #315D96",
"U. c #315F98",
"Y. c #31629E",
"T. c #3163A3",
"R. c #898989",
"E. c #9F9F9F",
"W. c #A0A0A0",
"Q. c #B3B2A2",
"!. c gray71",
/* pixels */
"V.V.V.V.m.m.m.m.m.m.m.m.t.t.t.t.t.t.t.t.q.T T q.t.t.t.t.t.t.t.t.t.t.t.i.m.m.m.m.m.m.m.m.m.m.m.m.m.m.m.u.t.t.t.t.t.m.m.m.V.V.V.V.",
"V.V.V.V.m.m.m.m.m.m.m.y.t.t.t.t.t.t.t.t.q.T T q.t.t.t.t.t.t.t.t.t.t.r.y.m.m.m.m.m.m.m.m.m.m.m.m.m.m.m.y.t.t.t.t.y.m.m.m.V.V.V.V.",
"V.V.V.V.m.m.m.m.m.m.m.y.t.t.t.t.t.t.t.t.q.T T q.t.t.t.t.t.t.t.t.t.t.t.y.m.m.m.m.m.m.m.m.m.m.m.m.m.m.m.y.t.t.t.t.y.m.m.m.V.V.V.V.",
"V.V.V.V.m.m.m.m.m.m.m.y.t.t.t.t.t.t.t.t.q.T T q.t.t.t.t.t.t.t.i.t.t.t.y.m.m.m.m.m.m.m.M.m.m.m.m.m.m.m.m.t.t.t.t.y.m.m.m.V.V.V.V.",
"V.V.V.V.m.I X X X X X X X X X X . O + + + + O . o . X X X X . . X X . X o O + + + + o           = X.L.L.H.X.= o X X I m.V.V.V.V.",
"V.V.V.V.I X X X X X X X X X X X + + + + + + + O . O X X o X O . X X X X + + + + + + + O         X.P.L.L.H.@.X.E X X X I V.V.V.V.",
"V.V.V.V.X X X X X X X X X X X O + + + + + + + + + O . . X . O O X X X + + + + + + + + + . .     I.L.L.U.@.@.@.@.O X X X V.V.V.V.",
"V.V.V.V.X X X X X X X X X O + + + + + + + + + + + + + X . O . . X + + + + + + + + + + + + O     T.U.U.T.H.@.@.@.+ O X o V.V.V.V.",
"V.V.V.V.X O + + + + @ # 5 5 % # 2 : , ,.:.;.: 2 @ # 5 5 5 5 5 5 5 5 5 5 5 6 Z 9.Z Z 5 + + + + + T.T.T.T.#.@.@.@.+ + O X V.V.V.V.",
"V.V.V.V.O + + + @ % 5 5 5 5 5 # : :.,.,.,.,.:.: # 5 5 5 5 5 5 5 5 5 5 5 m v.n.n.8.8.9.n 5 5 5 5 T.T.T.T.#.@.@.@.+ + + O V.V.V.V.",
"V.V.V.V.+ + + @ 5 5 5 5 5 5 5 5 ,.,.,.,.,.,.,.,.5 5 5 5 5 5 5 5 5 5 5 5 n.n.n.n.8.8.8.8.5 5 5 5 T.T.T.T.#.@.@.@.+ + + + V.V.V.V.",
"V.V.V.V.+ + # 5 5 5 5 5 5 5 5 5 ,.,.,.,.,.,.,.,.5 5 5 5 5 5 5 5 5 5 5 5 n.n.n.n.8.8.8.8.5 5 5 5 T.T.T.T.#.@.@.@.+ + + + V.V.V.V.",
"M.M.M.M.4 :.;.4 1 y u u u u y 7 ,.4.5.,.,.,.,.,.5 5 5 5 5 5 5 5 5 5 5 c Q.Q.Q.Q.S.S.S.S.; ;.;.; T.T.T.T.#.@.@.@.h ] j.{ M.M.M.M.",
"t.t.t.t.*.,.,.:.y i u u u u u y 4.5.6.4.,.,.,.,.5 5 5 5 5 5 5 5 5 5 c F !.!.!.!.R.R.R.R.> :.:.;.T.T.T.T.#.@.@.@.] k.k.[ t.t.M.0.",
"t.t.t.t.,.,.,.,.u u u u u u u u 6.6.6.6.,.,.,.,.5 # 5 5 5 @ 5 5 5 b f.g.!.!.!.!.R.R.R.R.,.,.,.,.T.T.T.T.#.@.@.@.z.z.z.z.t.t.i.t.",
"C.V.C.V.2.2.2.2.u u u u u u u u 6.6.6.6.,.,.,.,.# * * # 5 @ @ # b g.h.h.Q.Q.Q.Q.S.S.S.S.,.,.,.,.T.T.T.T.#.@.@.@.z.z.z.z.t.t.t.t.",
"G.G.G.G.6.6.6.6.u u u u u u u u 6.6.6.6.,.,.,.,.R @.o.R . X O k p.h.h.h.n.n.n.n.c.8.8.8.,.,.,.,.T.T.T.T.#.@.@.@.z.z.z.z.C.V.C.V.",
"G.G.G.G.6.6.6.6.u u u u u u u u 6.6.6.6.,.,.,.,.I.T.T.I.X X v f.h.h.a.f.n.n.n.n.c.8.8.8.,.,.,.,.T.T.T.T.J.@.@.@.z.z.z.z.G.G.G.G.",
"G.G.G.G.6.6.6.6.u u u u u u w w 6.6.6.6.,.,.,.,.T.T.T.T.X b p.a.a.a.g.A n.n.n.n.c.8.8.8.,.,.,.,.T.T.T.T.L.#.@.@.z.z.z.z.G.G.G.G.",
"D.A.A.A.6.6.6.6.u u u u u w 0 9 6.6.6.6.-.,.,.-.T.T.T.T.c p.a.h.h.a.A A n.n.n.n.c.8.8.8.,.,.,.,.T.T.T.T.L.J.@.@.z.z.z.z.A.A.D.D.",
"V.V.V.V.6.6.6.6.u u u u w 9 9 9 6.6.6.6.u ,.,.w T.T.T.T.p.h.a.a.a.S A B n.n.n.n.c.s.s.s.7.7.7.7.T.T.T.T.K.L.H.@.z.z.z.z.V.V.V.V.",
"V.V.V.V.6.6.6.6.u u u 0 9 9 9 9 6.6.6.6.u e e u T.T.T.T.h.a.h.a.A B B A n.n.n.n.s.h.h.h.u u u u T.T.T.T.L.L.L.H.z.z.z.z.V.V.V.V.",
"V.V.V.V.6.6.6.6.u u 0 9 9 9 9 < 6.6.6.6.u u u u T.T.T.T.h.h.h.D V V A B n.n.n.n.s.h.h.h.u u u u T.T.T.T.L.L.L.L.z.z.z.z.B.V.V.V.",
"V.V.V.V.6.6.6.6.w 0 9 9 9 9 < 1 4.2.2.4.u u u u K.K.K.K.h.h.D V V V V b b.b.b.b.s.h.h.h.u u u u K.K.K.K.L.L.L.L.j.j.j.j.m.B.V.V.",
"V.V.V.V.,.,.,.,.0 9 9 9 9 < 1 5 *.*.-.-.u u u u @.@.@.@.f.f.A V B B M & c.c.c.c.s.h.h.h.u u u u @.@.@.H.L.L.L.L.] _ ` ` B.m.m.m.",
"V.V.V.V.,.,.,.,.9 9 9 9 < 1 5 5 :.,.,.,.u u u u @.@.@.@.S S V V V C & + 8.8.8.8.s.h.h.h.u u u u @.@.@.H.L.L.L.L./ / ` ` M.m.m.m.",
"V.V.V.V.,.,.,.,.9 9 9 < 1 5 5 5 ,.,.,.,.u u w w @.@.@.@.V V V V C 6 + + 8.8.8.8.s.h.h.h.u u u u @.@.@.H.L.L.L.L./ ` ` ` m.m.m.m.",
"V.V.V.V.,.,.,.:.9 9 < 1 5 5 5 5 ,.,.,.-.u u u w @.@.@.@.V V B B x + + + 8.8.8.d.s.h.h.h.u u u u @.@.#.H.L.L.L.J.` ` ` ` m.m.m.m.",
"i.N.V.V.V.V.C.A.D.D.D.D.D.D.D.D.D.G.G.G.G.G.G.G.G.G.F.D.D.D.C.V.V.V.N.V.V.V.V.V.V.C.D.D.D.D.D.D.A.D.C.V.V.V.V.V.V.V.V.V.m.m.m.t.",
"t.t.i.N.V.V.V.C.D.D.D.D.D.D.D.D.F.G.G.G.G.G.G.G.G.G.G.F.D.D.D.Z.V.V.V.V.V.V.V.V.C.D.D.D.D.D.D.D.D.D.D.C.V.V.V.V.V.V.V.V.m.y.t.t.",
"t.t.t.t.i.N.V.V.V.Z.D.D.D.D.D.D.G.G.G.G.G.G.G.G.G.G.G.G.D.D.D.V.V.V.V.V.V.V.V.V.C.D.D.D.D.D.D.D.D.D.Z.V.V.V.V.V.V.V.V.V.N.i.t.t.",
"t.t.t.t.t.t.i.N.V.V.C.Z.D.D.D.D.F.G.G.G.G.G.G.G.G.G.G.F.Z.V.V.V.V.V.V.V.V.V.V.V.V.C.D.D.D.D.D.D.A.V.V.V.V.V.V.V.V.V.V.V.V.V.N.i.",
"N.i.t.t.t.t.t.t.t.m.m.m.m.m.m.m.m.m.m.m.e.T T e.m.m.m.m.m.m.M.i.0.M.M.0.M.0.M.M.m.m.m.m.m.m.m.m.m.B.B.y.t.t.t.t.0.w.T u.V.V.V.V.",
"V.V.N.i.t.t.t.t.t.t.t.m.m.m.m.m.m.m.m.m.T T T T m.m.m.m.m.y.t.t.0.i.M.0.M.m.m.B.m.m.m.m.m.m.m.m.m.0.t.t.t.t.t.t.T T T T V.V.V.V.",
"V.V.V.V.t.t.t.t.t.t.t.t.y.m.m.m.m.m.m.e.T T T T 0.m.m.y.0.M.t.t.M.0.M.m.m.m.m.m.m.m.m.m.m.B.m.m.t.t.t.t.t.t.y.0.T T T T V.V.V.V.",
"V.V.V.V.t.t.t.t.t.t.t.t.t.y.m.m.m.m.e.T T T T T T T u.M.t.t.M.0.M.M.B.B.m.m.m.m.m.m.m.m.m.m.y.t.t.t.t.t.t.t.e.T T T T T V.V.V.V.",
"V.V.V.V.t.0.+ @ + + X                   X X + # % C C V N l k & & + + + O X . .           o + + + + + + X       X X J T V.V.V.V.",
"V.V.V.V.Y + + + + + + O           X o O + O + + c B V V N M l z O + + + X X X .         X + + + + + + +               J V.V.V.V.",
"V.V.V.V.+ + + + + + + +           X + + + + $ $ C N V V B N M k 4 + + + + X X X .   X O + + + + + + + + O X       X X X V.V.V.V.",
"V.V.V.V.+ + + + + + + + O       O + + + + + O # V V V V V B M N *.; + + + + + X . O + + # + + + + + + @ + + O X   X X X V.V.V.V.",
"V.V.V.V.O 4 > 1.,., 2 + + + + @ % O.T.Y.#.@.Q 5 D h.f.g.p.V B N *.,.: % 5 5 5 5 5 5 5 % 5 c N B N N v 5 # @ + + + + O X V.V.V.V.",
"V.V.V.V.> >.3.2.2.,.,., + + + + ^ L.T.Y.@.@.o.Q D h.f.g.p.V V B ,.,.,.a 5 5 5 5 5 5 5 O x M V B N N M x 5 5 % + + + + O V.V.V.V.",
"V.V.V.V.6.6.6.6.5.<.:.:.+ + + @ I.Y.T.Y.@.@.@.@.D h.h.f.D V V V ,.,.,.,.a 5 5 5 5 5 # X B V V V B B N N 5 5 5 5 @ + + + V.V.V.V.",
"V.V.V.V.6.6.6.6.6.6.5.<.+ + + + T.T.T.Y.@.@.@.@.f.h.h.f.p.V V V ,.,.,.,.,.a 5 5 5 % O X V V V V V V B N 5 5 5 5 5 @ + @ r.r.r.r.",
"M.M.M.M.!.!.E.R.R.R.R.&.f _ W f T.T.T.Y.@.@.@.@.f.h.h.h.F V V V ,.,.,.,.6.6.p 5 X X X X p.h.S V V V V V 5 j _ / } { g # T T T T ",
"t.t.t.t.!.!.!.R.R.R.R.&.( / / ( T.T.T.Y.@.@.@.@.f.s.h.h.F V V V ,.,.,.,.6.6.1.3 X X o X h.h.g.V V V V V | [ j.' } / h g T T T T ",
"t.t.t.t.!.!.!.R.R.R.R.&./ / ` ` T.T.T.Y.@.@.@.@.F h.h.h.F A V V ,.,.,.,.6.6.6.1.3 X X X h.h.h.S V V V V x.z.z.z.} / } { T T T T ",
"M.M.M.B.!.!.W.R.R.R.R.&.` / / / T.T.T.Y.@.@.@.@.D h.h.h.D V V V ,.,.,.,.6.6.6.6.*.p X X h.h.h.a.V V V V z.z.z.z.} } } | T T T T ",
"G.G.G.G.6.6.6.6.6.2.,.,./ ` ` ` T.T.T.Y.H.@.@.@.G K K K G K G G 7.=.,.,.<.6.6.6.<.,.3 o h.h.h.h.V V V V !.!.!.W.R.R.R.R.G.G.G.G.",
"G.G.G.G.6.6.6.6.2.<.,.,./ ` ` ` T.T.T.T.P.@.@.@.%.$.$.$.%.- - - u u =.*.,.4.6.6.5.,.,.p h.h.h.h.V V V V !.!.!.W.R.R.R.R.G.G.G.G.",
"G.G.G.G.6.6.6.6.,.,.,.7.` ` ` ` T.T.T.T.L.H.@.@.$.$.$.$.- - %.R u u u -.,.,.6.6.6.<.,.,.h.h.h.h.V V V V !.!.!.W.R.R.R.R.G.G.G.G.",
"G.G.G.G.6.6.6.6.,.,.7.u ` ` ` ` T.T.T.T.L.J.@.@.%.$.$.$.- - %.G u u u =.,.*.5.6.6.5.<.,.h.h.h.h.V V V V !.!.!.W.R.R.R.R.F.F.F.F.",
"A.A.A.A.6.6.6.3.,.*.u u ` ` ` ` T.T.T.T.L.L.H.@.%.$.$.$.%.- %.s < u u u *.,.<.6.6.6.6.<.h.h.h.h.V V V V z.z.z.k.` ` ` ` V.V.V.V.",
"V.V.V.V.6.6.6.,.,.-.w u ` ` ` ` T.T.T.U.L.L.L.H.%.$.$.$.- - R d # 7 u u *.,.,.2.6.6.6.6.h.h.h.S V V V V z.z.z.k.` ` ` / V.V.V.V.",
"V.V.V.V.6.6.3.,.,.7.u u ` ` ` ` T.T.T.U.L.L.L.L.%.$.$.$.%.- - d % @ 8 u *.:.,.,.2.6.6.6.h.h.f.V V V A V z.z.z.k.` ` / / V.V.V.V.",
"V.V.V.V.6.6.,.,.,.7.u u ~ ~ ~ ~ J.J.Y.U.L.L.L.L.K K K K K G G H @ @ # t *.,.,.,.:.3.6.6.D h.S V V V V V k.k.k.k.' ' ' ' V.V.V.V.",
"B.B.B.B.2.,.,.,.-.u u u U U U U @.@.J.L.L.L.L.L.M V A V V V B M J P L J q *.,.,.,.,.2.6.A V V V V V V B ` ` ` ` ..@.@.@.V.V.V.V.",
"m.m.m.m.,.,.,.,.e u u u U U U U @.@.@.J.L.L.L.L.M V V V V V V M I I I L # w :.,.,.,.,.2.V V V V V N N N ` ` ` ` ..@.@.@.V.V.V.V.",
"m.m.m.m.,.,.,.e u u u u U I U U @.@.@.@.J.L.L.L.M B V V V V V M I U I J % 5 =.,.,.,.,.:.V V V B N N N N ` ` / / ..@.@.@.V.V.V.V.",
"m.m.m.m.,.,.,.e u u u u P I I I @.@.@.@.J.L.L.L.M A V V V V V M U U I L % @ % -.,.,.,.:.V V B N N N N N ` ` / / ..@.@.@.V.V.V.V.",
"V.V.V.V.D.D.D.D.D.D.D.D.D.F.G.G.G.G.G.G.G.G.G.G.G.F.C.V.V.V.V.V.V.V.V.C.D.D.D.D.D.D.D.D.D.D.D.D.D.D.V.V.V.V.V.V.V.V.V.V.V.V.V.V.",
"V.V.V.V.D.D.D.D.D.D.D.D.F.G.G.G.G.G.G.G.G.G.G.G.F.Z.D.C.V.V.V.V.V.V.V.C.D.D.D.D.D.D.D.D.D.D.D.D.D.D.D.Z.V.V.V.V.V.V.V.V.V.V.V.V.",
"V.V.V.V.D.D.D.D.D.D.D.D.G.G.G.G.G.G.G.G.G.G.G.G.D.D.D.D.V.V.V.V.V.V.V.V.D.D.D.D.D.D.D.D.D.D.D.D.D.D.D.D.V.V.V.V.V.V.V.V.V.V.V.V.",
"V.V.V.V.D.D.D.D.D.D.D.D.G.G.G.G.G.G.G.G.G.G.G.G.D.D.D.D.V.V.V.V.V.V.V.V.D.D.D.D.D.D.D.D.D.D.D.D.D.D.D.D.V.V.V.V.V.V.V.V.V.V.V.V."
};
