/* XPM */
static char *_1140_28793fb5ca81a9c120d6b0368c10c46651c4559b5d4d191d8ae46c4cf24e83b2[] = {
/* columns rows colors chars-per-pixel */
"64 64 256 2 ",
"   c #593D29",
".  c #5D4839",
"X  c #61432D",
"o  c #674730",
"O  c #684831",
"+  c #6D4C33",
"@  c #714F35",
"#  c #755237",
"$  c #775439",
"%  c #77553C",
"&  c #76563F",
"*  c #785439",
"=  c #79553A",
"-  c #7A563B",
";  c #7C573C",
":  c #7D583C",
">  c #62544A",
",  c #755741",
"<  c #745844",
"1  c #7C5D45",
"2  c #7C5F4A",
"3  c #67605B",
"4  c #7C604A",
"5  c #7C614D",
"6  c #726053",
"7  c #7E6756",
"8  c #696663",
"9  c #6C6C6C",
"0  c #805A3E",
"q  c #825C3F",
"w  c #855E41",
"e  c #866041",
"r  c #876042",
"t  c #896142",
"y  c #886143",
"u  c #8E6646",
"i  c #8D6748",
"p  c #816C5B",
"a  c #8A725F",
"s  c #916746",
"d  c #926948",
"f  c #946948",
"g  c #966C4A",
"h  c #986D4B",
"j  c #9B6F4C",
"k  c #9C6F4C",
"l  c #9E724E",
"z  c #927259",
"x  c #806E60",
"c  c #82776E",
"v  c #8A7666",
"b  c #8E7968",
"n  c #837A73",
"m  c #847C77",
"M  c #A1734F",
"N  c #A77853",
"B  c #A97953",
"V  c #B07E57",
"C  c #8A8077",
"Z  c #978578",
"A  c #B9855C",
"S  c #A3856E",
"D  c gray53",
"F  c #8C8581",
"G  c black",
"H  c black",
"J  c black",
"K  c black",
"L  c black",
"P  c black",
"I  c black",
"U  c black",
"Y  c black",
"T  c black",
"R  c black",
"E  c black",
"W  c black",
"Q  c black",
"!  c black",
"~  c black",
"^  c black",
"/  c black",
"(  c black",
")  c black",
"_  c black",
"`  c black",
"'  c black",
"]  c black",
"[  c black",
"{  c black",
"}  c black",
"|  c black",
" . c black",
".. c black",
"X. c black",
"o. c black",
"O. c black",
"+. c black",
"@. c black",
"#. c black",
"$. c black",
"%. c black",
"&. c black",
"*. c black",
"=. c black",
"-. c black",
";. c black",
":. c black",
">. c black",
",. c black",
"<. c black",
"1. c black",
"2. c black",
"3. c black",
"4. c black",
"5. c black",
"6. c black",
"7. c black",
"8. c black",
"9. c black",
"0. c black",
"q. c black",
"w. c black",
"e. c black",
"r. c black",
"t. c black",
"y. c black",
"u. c black",
"i. c black",
"p. c black",
"a. c black",
"s. c black",
"d. c black",
"f. c black",
"g. c black",
"h. c black",
"j. c black",
"k. c black",
"l. c black",
"z. c black",
"x. c black",
"c. c black",
"v. c black",
"b. c black",
"n. c black",
"m. c black",
"M. c black",
"N. c black",
"B. c black",
"V. c black",
"C. c black",
"Z. c black",
"A. c black",
"S. c black",
"D. c black",
"F. c black",
"G. c black",
"H. c black",
"J. c black",
"K. c black",
"L. c black",
"P. c black",
"I. c black",
"U. c black",
"Y. c black",
"T. c black",
"R. c black",
"E. c black",
"W. c black",
"Q. c black",
"!. c black",
"~. c black",
"^. c black",
"/. c black",
"(. c black",
"). c black",
"_. c black",
"`. c black",
"'. c black",
"]. c black",
"[. c black",
"{. c black",
"}. c black",
"|. c black",
" X c black",
".X c black",
"XX c black",
"oX c black",
"OX c black",
"+X c black",
"@X c black",
"#X c black",
"$X c black",
"%X c black",
"&X c black",
"*X c black",
"=X c black",
"-X c black",
";X c black",
":X c black",
">X c black",
",X c black",
"<X c black",
"1X c black",
"2X c black",
"3X c black",
"4X c black",
"5X c black",
"6X c black",
"7X c black",
"8X c black",
"9X c black",
"0X c black",
"qX c black",
"wX c black",
"eX c black",
"rX c black",
"tX c black",
"yX c black",
"uX c black",
"iX c black",
"pX c black",
"aX c black",
"sX c black",
"dX c black",
"fX c black",
"gX c black",
"hX c black",
"jX c black",
"kX c black",
"lX c black",
"zX c black",
"xX c black",
"cX c black",
"vX c black",
"bX c black",
"nX c black",
"mX c black",
"MX c black",
"NX c black",
"BX c black",
"VX c black",
"CX c black",
"ZX c black",
"AX c black",
"SX c black",
"DX c black",
"FX c black",
"GX c black",
"HX c black",
"JX c black",
"KX c black",
"LX c black",
"PX c black",
"IX c black",
"UX c black",
/* pixels */
"A A l g g g g g g g g g g g u 0 = = = = = y V A D b g g g g 0 = = = = = = = = = = O @ = = = = = = = u g V l g g = = = = = h A A ",
"A A V g g g g g g g g g u 0 = = = = = = l V A A b g g g g g u = = = = = = = = = #   X = = = = = = = 0 g A A V h = = = = h A A A ",
"A A A l g g g g g g g r = = = = = = = = g V V V g g g g g g g ; = = = = = = = = = X   # = = = = = = = g A A V g = = = = A A A A ",
"A A A V g g g g g g r = = = = = = = = = g l N N g b b b g g r = = = = = = = = = = @ O = = = = = = = h V A A l g = = = = h A A A ",
"= l l g g g g g g $     = = = = = = = = u g g g b D D D b $   X = = = = = = t j g g g u = = = = = t A A A N g g = O     X @ = = ",
"= = = r g g g g $       = = = = = = = = 0 g g g D D D D $     @ = = = = t B A A g g g 0 = = = = = B A A N g g g O           o = ",
"= = = = 0 u g r         O = = = = = = = = y g g D D D D     o = = = = h A A A N g g y = = = = = t A A N g g e O               @ ",
"= = = = = = ; =           O = = = = = = = = 0 u b D D x X @ = = = = h A A A N g u 0 = = = = = = s A N g e O                   + ",
"= t A f = = = = = = O           = : = = = = = = = x x = = = = = = h A A A h = = = = = = = = = = X                   O @ = = = = ",
"= B A l = = = = = = = O         = B B q = = = = = = = = = = = = h A A A h = = = = = = = = = = = @               @ M A h = = = = ",
"t A B g = = = = = = = = O       t A B g = = = = = = = = = = = h A A A N = = = = = = = = = = = = = X           t A A A N = = = = ",
"t f f g = = = = = = = = = O     k l g g = = = = = = = = = = h A A A N g = = = = = = = = = = = = = @         t A A A N g = = = = ",
"= = 0 u p 9 9 9 a t = = = = u g g g g e = O @ = = = = = = h A A A N g g g g 0 = = = = = = 0 0 = = = = = = t A A A N g g = = = = ",
"0 u g g 9 9 9 9 A A B t = = 0 g g g g O O   X = = = = = h A A A N g g g g g u = = = = = = u u = = = = = = B A A N g g g = = = = ",
"g g g g 9 9 9 9 N A A A h = = u u u e         @ = = = = h A A N g g g g g g g ; = = = = 0 g g 0 = = = = t A A N g g g r = = = = ",
"g g g g 9 9 9 9 g N A A A h = 0 0 0 O         X = = = = = h N g g g g g g g r = = = = = u g g u = = = = l A N g g g r = = = = = ",
"u g g u 9 6 6 9 g g N A A A t =           $ 0 = = = = = = = = = g g g g g $   X = = = 6 p 9 9 p 6 = = = u g g g g $   X = = = = ",
"0 g g 0 6 = = 6 g g g N A A B =         $ g u = = = = = = = = = g g g g $     @ = = = 6 9 9 9 9 6 = = = 0 g g g $     @ = = = = ",
"= u u = = = = = g g g g N A V 0     X @ g g g 0 = = = = = = = = 0 u e O     X = = = = 6 9 9 9 9 6 = = = = y g r     o = = = = = ",
"= 0 0 = = = = = g g g g g N l u X @ = = g g g u = = = = = = = = = = @ X     @ = = = = = 6 9 9 6 = = = = = = ; = X @ = = = = = = ",
"= = = = + @ = = u g g g g g g g g r = = g g g u = O                       O = = = = = = = O O = = = = = = = = = = = = = = : = = ",
"= = = =     X @ 0 g g g g g g g r = = = g g g 0 O                       O = = = = = = = O     O = = = = = = = = = = = = = B B t ",
"h = = = @ X     = u g g g g u 0 = = = = 0 u u =                       O = = = = = = = = O       = = = = = = = = = = = = u A A A ",
"A h = = = = @ X = 0 g g u 0 = = = = = = = = - =                     O N h 0 = = h u u u u O     = = = = = = = = = = = = g N A A ",
"A A h = = = = = = = = = = = = = x D D x = = = = = = = = h A A A A A A A N u 0 u N A A A A A A h = = = = g g r = = = = = g g N A ",
"A A A h = = = = = = = = = = = = D D D D = = = = = = = = A A A A A A A A N u 0 u A A A A A A A A = = = = g g g r = = = = g g g N ",
"A A A h = = = = = = = = = = 5 n D D D D r = = = = = = = h A A A A A A A N u 0 h A A A A A A A A = = = = r g g g r = = r g g g g ",
"A A h = = = = = = = = = 5 n D D D D D D g r = = = = = = = h A A A A A N h 0 = = N A A A A A A N = = = = = r g g g r r g g g g g ",
"g r = = = = = = h A A A A S Z F D b g g g g 0 = = = = = = = r g g g g g = @   O g N N N N N N u = = = = = = r g g g g g g g g g ",
"d = = = = = = = A A A A A A A S b g g g g g u = = = = = = = = r g g g g = X     g g g g g g g 0 = = = = = = = r g g g g g g g g ",
"g 0 = = = = = = h A A A A A A A g g g g g g g 0 = = = = = = = = r g g g @     $ g g g g g g u = = = = = = = = = 0 u g g g g g g ",
"g u = = = = = = = h A A A A A N g g g g g g g u = = = = = = = = = r g g -   $ g g g g g g g 0 = = = = = = = = = = = 0 u g g g g ",
"g g r = = = = = = = r g g g g g g r r g g g g g = = = = = O O = = = r g g g g g g g g g g r = = = = = = = = = = X   @ = 0 u g g ",
"g g g r = = = = = = = r g g g g r = = r g g g g = = = = O     O = = = r g g g g g g g g r = = = = = = = = = = = @   X = = = 0 u ",
"g g g g r = = = = = = = r g g r = = = = r g g r = = @ X       O = = = = 0 u g g g g u 0 = = = = = = = h N h = = = X   @ = = = r ",
"g g g g g r = = = = = = = r r = = = = = = r r = @ X         O = = = = = = = 0 u u 0 = = = = = = = h N A A A h = = @   + = = r g ",
"g r u g g g 0 = X @ = = = = = = = = = = X                 O = = = = = = = = = = = = = = = = = = h A A A A A A h = = = = = r g g ",
"r = 0 g g g u =     X @ = = = = = = = = @               O = = = = = = = = = = = = = = = = = = = N A A A A A A A = = = = r g g g ",
"= = = u g g g 0         = t t t = = = = = X         X @ = = = = = = = = = = = = = = = = = = = = N A A A A A A A x x 0 u g g g r ",
"= = = 0 g g g u       O t V V V t = = = = @     X @ = = = = = = = = = = = = t h h t = = = = = = g N A A A A A A D v g g g g r = ",
"= = = 0 g g g g g r = = h A A A B t = = = = = = = = t B t 0 g g = O     = h B A A A B =     O = g g g g N N D D D D D D g r = = ",
"= = = u g g g g r = = = A A A A A A B t = = = = t B A A B u g g O       t B A A A A A h       O g g g g g g z C D D D D x = = = ",
"= = 0 g g g g r = = = = l V A A A A A A h = t B A A A A B g g g 3 .   > B A A A A A A t O       $ g g g g g z C D D D D x = = = ",
"= = u g g g r = = = = = g g l V A A A A A V A A A A A B h g g g 9 9 8 9 B B B A A A B B = O       $ g g g g z C D D D x = = = = ",
"= r g g g r = = = = = = u g g g l V A A A A A A A h h h g g g g 9 9 9 9 B B B B B B g = = = O       $ g g g g z C x x = = = @ X ",
"r g g g r = = = = = = = 0 g g g g g l V A A A A h = = r g g g g 9 9 9 9 g g g g g g g r = = = O       $ g g g g r = = = @ X     ",
"g g g r = = = = = = = = = u g g g g g g N A A A h = = = 0 u g g 9 9 9 p g g g g g g u 0 = = = = @ X   O g g u 0 = = = = @ X   $ ",
"g g r = = = = = = = = = = 0 g g g g g g g N A A A h = = = = 0 u p 9 p g g g g g u 0 = = = = = = = = # = u 0 = = = = = = = = * u ",
"g u = = = = @ X = ; = = = = r g g g g g g g N A A A h = = = = = = = = = = = = = = = = = = = = = = = = = = = = = = = t B A A A V ",
"g 0 = = = o     r g u 0 = = = r g g g g g g g N A A A h = = = = = = = = = = = = = = = = = = = = = = = = = = = = t B A A A A A l ",
"u = = = @     $ g g g r = = = = 1 i g g g g g g l V A A r = = = = = = = = = = = = = = = = = = = = = = = = = = h A A A A A A V g ",
"0 = = = X   $ g g g r = = = = = < < 1 i g g g g g g l V g r = = = = = = = = = = = = = = = = = = = = = = = = h A A A A A A A l g ",
"= = = = = r g g g r = = = = = = , < & = 0 u g g g g g g g g r = = = = = = = @ X @ = 0 = X @ = = = = = = = h A A A A V l g g g g ",
"= = = = r g g g r = = = = = = = % < < & = = 0 u g g g g g g g r = = = = @ X     $ B A h     o = = = = = h A A A V l g g g g g g ",
"r = = r g g g r = = = = = = = = = , < < & = = = r g g g g g g g r r r r @ X   $ B A A A $     @ = = = = h A A A g g g g g g g g ",
"g r r g g g r = = = = = = = = = = % < < < & = = = r g g g g g g g l l l l M M B B A A A g $   X = = = = = h A A g g g g g g g g ",
"g g g g g u = = = = @ X = 0 = = = = & < o @ = = = = r g       $ V A A A A A A A A B r g g g r = = = = = = = r g g g g g g g g g ",
"g g g g g 0 = = = o     h A B t = = = & @   X @ = = = r         l A A A A A A A A t = r g g g r = = = = = = = d g g g g g g g g ",
"g g g g u = = = @     t A A A A r = = = = X     = = = =         g V A A A A A N B = = = r g g g u 0 = = = = w g g g g g g g g g ",
"g g g g 0 = = = X   t A A A A A g r = = = @   O = 4 4 4 O       g l A A A A N g t = = = = r g g g g u 0 0 u g g g g g g g g g g ",
"g g g g 0 = = = = h A A A N g g g g r = = = = 4 m D D m 4 = r g g g g g g g g u = = = = = = r g g g g g g g g g g g u 0 = O   $ ",
"g g g g u = = = h A A A N g g g g g g r = = 2 x D D D D 4 = = r g g g g g g g 0 = = = = = = = r g g g g g g g g u 0 = = O       ",
"g g g g g w 0 u A A V l g g g g g g u 0 = = 2 x m D D m r = = = 0 u g g g g y = = = = = = = = = r g g g g g g g = = = =       $ ",
"g g g g g g g g V l g g g g g g u 0 = = = = = 7 x c c x g r = = = = 0 u u 0 = = = = = = = = = = = r g g g g g g = = = =     $ g "
};
