/* XPM */
static char *_5836_846d58abc75422102efa4d684ca299fc84af40dcf1d9373b353ab1a3d4e174d9[] = {
/* columns rows colors chars-per-pixel */
"64 64 60 1 ",
"  c gray32",
". c #555555",
"X c #595858",
"o c gray35",
"O c #5B5B5B",
"+ c #5D5D5D",
"@ c #5F5F5F",
"# c gray38",
"$ c #626262",
"% c #646464",
"& c #656565",
"* c #676666",
"= c #676767",
"- c #6A6A6A",
"; c #6B6A6A",
": c #6C6B6B",
"> c #6E6D6D",
", c #6F6E6E",
"< c #717070",
"1 c #727272",
"2 c #747373",
"3 c #747474",
"4 c #757474",
"5 c #767676",
"6 c #7A797A",
"7 c #7B7A7A",
"8 c #7C7B7B",
"9 c #7C7B7C",
"0 c #7C7C7C",
"q c gray49",
"w c #7E7D7E",
"e c gray50",
"r c #818081",
"t c #838383",
"y c #868585",
"u c #868686",
"i c #888788",
"p c #8A8989",
"a c #8B8B8B",
"s c #8D8C8D",
"d c #8F8E8F",
"f c #919091",
"g c #939293",
"h c gray58",
"j c #979697",
"k c #989797",
"l c #989898",
"z c gray61",
"x c gray62",
"c c #A0A0A0",
"v c #A2A2A2",
"b c gray64",
"n c gray65",
"m c #A7A7A7",
"M c #A9A9A9",
"N c gray68",
"B c #AEAEAE",
"V c #B1B1B1",
"C c gray70",
"Z c gray71",
/* pixels */
">>=#######1hh1###+##+#########1hnNMnnnjiw-####3iiixZZZNnnndiii2>",
">>>=####1hnnnnh16 .+.#######1hnnNZVnnnnjiiw-###3iiixZZZmnnxiiir>",
">>>=###tnnnnnnnni@   +#####tnnMVZZZmnnnjiiii####3iiixZVnnnliiii2",
">>=###tnnnnnnnnni6   .####tnMVZZZZNnnnjiiiii#####3iiixMnxdiiiiir",
">-###1nnnnMVnjiiii@     #5ZZZZZZZNnnnjiiiiir##@###3iiiiii7>2iiir",
">%###hnnnBZZjiiiii6     #cZZZZZZNnnnjiiiiii2+. o###3iiii7>>riii2",
"-###1nnnMZZxiiiiiirX   o5ZZZZZVMnnxdiiiiiir>    o###3iii7>2iiir>",
"%###hnnnVZxiiiiiii2*  o#cZZZVMnnxdiiiiiiii2>     o###3iii7riii2>",
"####hnnnnjiiiidxi7>>>=##ZNnnnnxdiiiiiidxi7>>>=o   o###3iiiiii7>>",
"####1nnnjiiiilnn7>>>=###Nnnnxdiiiiiiilnn7>>>=##o   o###3iiii7>>>",
"#####hnniiiidnnp>>>=####nnnjiiiiiiiidnnp>>>=###o    o###-wi7>>>>",
"#####1nniiiixnp>>>=#####jnjiiiiiiiiixnp>>>=###o      o####=->>>>",
"######3iiiiii7>>>=######wiiii77iiiiii7>>>=####-wiiiiw-#######oo#",
"#######3iiii7>>>=#######-iii7>>7iiii7>>>=###-wiidxxdiiw-####o  o",
"o#######3ir2>>-%#########wii7>>7iii7>>-%###3iidxnnnnjiii3###o   ",
" o#######->>-%###########-iii77iii7>-%####3idxnnnnnnnjiii3###o  ",
"  +#-%######>>2riifxnnne##3iiiiii3#######aZZZVnnnnnnnnjiii3###o ",
"  .#>>-%####2riigMZNnnnd###3iiii3#######aZZZZMnnnnnnnnnjiii3###o",
"   +>>>>###3iigMZZZNnnxi####-ww-#######3ZZZZCnnnnnnnnnnjiii7###o",
"   .>>>>##3igMZZZZNnnndi##############3iZZZZZNnnnnnnnnjiii7>##o ",
"it>>>>>>>pnnnNZZZZMgiiii##$#######+.#3iiiiMZZZZZnnnnnjiii7>->2ii",
"xZbe>>>>4nnnNZZZMgiiiiii%->=####+.  3iiiiigZZZZZnnnnjiii7>>%>rii",
"ZZZZ7>>>>knnMVZZjiiiiiii7>>>=###+.  3iiiiiiMMVZNnnnjiii7>>-#2iix",
"ZZZZi7>>>8nnnnMVnjiiiiiii7>>>=####+.#3iiiiignnmnnnjiii7>>>%#rixZ",
"ZCZZii2>;wiidxnnnnjiiiiiii2>>>=#######=>>>7innnnnjiii7>>>=##igZZ",
"NnMViir>-#-wiidxnnnjiiiiiir>>>>=#######=>>>7nnnnjiii7>>>=###iMZZ",
"nnxdiii2>%##7iiijnnjiiiiiir>>>>=#######=>>>>nnnjiir2>>>>####sZZN",
"xdiiiiir>-##>7iiijjiiiiiii2>>>=#######=>>>>pnnjir2>>>>>>####ixNn",
"iiiiiiir>>>>>>7iiiiiiiiii7>>>=####-wiigMZNnnxt###%>>>77>####iiii",
"iiiiiii2>>>>>>>7iiiiiiii7>>>=###-wiigMZZNnnnu####->>7ii:####iiii",
"iiiiii9>>>>>>>>>2riiiir2>>>=###3iiixZZZNnnnni-###->>7i5#####7iii",
"iiiir2>>>>>>>>>>>>2rr2>>>>=###3iiixZZZNnnnnniw####%->:######>7ii",
">>>>>>-%>>qknnny>>>>>>>>>=##%3iiixZZZZMgiiiiii-#########o +#->>>",
">>>>-%##ebZNnnnd>>>>>>>>=###,iiixZZZMgiiiiiiiiw#########  .#%>>>",
">>-%###aZZZNnnxi>>>>>>>>-%##>riixZZxiiiiiiiiii9%#######o   +#->>",
"-%####aZZZNnnndi>>>>>>>>>>-%>2iiixxiiiiiiiiir2>-######o    .#%>>",
"####%5ZZZNnnnjir>>>>>><>>>>>>>7iiiiiiiiiiiw-#=>-#####3iiiiw-####",
"####-cZZNnnnjii2>>>>2ri<>>>>>>>7iiiiiiiiw-##=>>%####3iiidxh1####",
"####>bVMnnnjiir>>>>7iir>>>>>>>>>2riiiir2##%->>-####oiiijnnnnh1##",
"####>0nnnnjiii2>>>7iii2>>>>>>>>>>>2rr2>>%->>>>%###o iijnnnnnnnh1",
"ii7>>>>>>7iii7>>>7iii3######O+##%->>>>>>>>>>>=###o @idnnnnnnZZxi",
"iii7>>>>7iii7>>>7iii3#######  .+##%->>>>>>>>=###o  6ixnnnnnnZZZx",
"iiii>>>>2ri7>>>>2rw-#######o    o###%->>>>-%###o  @idnnnnnMVZZZx",
"iiii>>>>>><>>>>>>>-%######o      o####%--%####o   6ixnnnMVZZZZxi",
"iiir>>>>>>>>>>-%######%->2iiiifxh1###########o   @iinNZZZZZZZxii",
"iii2>>>>>>>>-%#######->>>riigMZNnnh1########@    6iiNZZZZZZZxiii",
"iir>>>>>>>>>-%#######->=2iixZZZNnnnnt########.  @iiiZZZZZZMgiiii",
"ii2>>>>>>>>>>>-%#####%=#rixZZZNnnnnnnt#######+  6iiixZZZMgiiiiii",
"i7>>>>2rixMnk8>>-%######igZZZNnnnvnnnnp>-%####o iiiiiiiii7>2iiii",
"7>>>2riixZVnnnk8>>=#####iMZZNnnnjidxnnnp>>-%###oiiiiiiii7>>riiii",
">>>=iiixZZZmnnnn7>>%####zZZNnnnjiiiidxnn7>>>=###-wiiiiii7>2iiii7",
">>=#iixZZZNnnnnni7>-####nNNnnnjiiiiiiidxi7>>>=####-wiiiii7riii7>",
">=#1ixZZZNnnnjiiii2>%###nnnnnjiii77iiiiiii2>>>=#####-wiiiiiii7>>",
"=##hxZZZNnnnjiiiiir>-###nnnnjiii7>>7iiiiiir>>>>=######-wiiii7>>>",
"##1nZZVMnnnjiiiiiii2>%##nnxdiir2>>>7iiiiiir>>>>=########-wi7>>-%",
"##hnVMnnnnjiiiiiiiir>-##ediir2>>>>7iiiiiii2>>>=###########=--%##",
"#1nnnnnnnjiii77iiiii2>=######=>>>2iiiiiii7>>>=####-ww-##########",
"#hnnnnnnjiii7>>7iiiir>>=####=>>>>riiiiii7>>>=###1hxdiiw-########",
"#hnnnnnjiii7>>>>7iiii2>>=##=>>>>,riiiir2>>-%###3nnnnjiii3#######",
"#1nnnnjiii7>>>>>>7iiir>>>==>>>>>>>2rr2>>-%####3innnnnjiii3######",
"##3iiiiii3####=>>>7iii7>>>>>>==>>>>>>>-%#####3iinnmnnnjiii7>-%##",
"###3iiii3######=>>>7iii<>>>>=##=>>>>-%######&iiiMVZNnnnjiii7>>-%",
"=###3iw-########%->>2rr>>>-%###=>>>>=########wiixZZZNnnnjiii7>>>",
">=###&############%->>,>-%####=>>>>>>=#######-iiixZZZNnnnjiii7>>"
};
